# xmcd CD database file
#
# Track frame offsets:
#	150
#	24036
#	42024
#	63559
#	87697
#	103123
#	116387
#	132296
#	152653
#	173348
#
# Disc length: 2535 seconds
#
# Revision: 0
# Processed by: cddbd v1.5.2PL0 Copyright (c) Steve Scherf et al.
# Submitted via: CDex 1.51
#
DISCID=7309e50a
DTITLE=한태주 - 흙피리 창작음반  춤
DYEAR=2015
DGENRE=New Age
TTITLE0=어울림(여는 마당) ?
TTITLE1=일파만파 ?
TTITLE2=노고단 ?
TTITLE3=평화의 강물 ?
TTITLE4=지리산의 춤 ?
TTITLE5=달리는 신전 ?
TTITLE6=별빛 사랑 ?
TTITLE7=달빛 궁전의 추억 ?
TTITLE8=백두대간의 숨결 ?
TTITLE9=노을의 춤 ?
EXTD=YEAR: 2015
EXTT0=
EXTT1=
EXTT2=
EXTT3=
EXTT4=
EXTT5=
EXTT6=
EXTT7=
EXTT8=
EXTT9=
PLAYORDER=
